<?xml version="1.0" standalone="no"?>
<!DOCTYPE svg PUBLIC "-//W3C//DTD SVG 20010904//EN"
 "http://www.w3.org/TR/2001/REC-SVG-20010904/DTD/svg10.dtd">
<svg version="1.0" xmlns="http://www.w3.org/2000/svg"
 width="598.000000pt" height="300.000000pt" viewBox="0 0 598.000000 300.000000"
 preserveAspectRatio="xMidYMid meet">

<g transform="translate(0.000000,300.000000) scale(0.100000,-0.100000)"
fill="#000000" stroke="none">
<path d="M2650 1925 c-225 -63 -394 -218 -471 -431 -26 -72 -32 -264 -11 -329
41 -124 92 -204 184 -290 324 -304 888 -213 1083 175 84 168 84 362 0 530 -81
160 -204 265 -390 331 -80 29 -311 37 -395 14z m340 -82 c197 -55 356 -212
405 -398 29 -113 15 -257 -36 -358 -92 -182 -277 -300 -494 -313 -117 -8 -213
12 -324 67 -330 163 -403 584 -147 843 154 157 384 218 596 159z"/>
<path d="M2785 1693 c-58 -16 -109 -89 -84 -119 19 -23 36 -16 57 21 27 44 64
55 100 27 42 -31 35 -77 -17 -120 -36 -30 -41 -39 -41 -77 l0 -42 -182 -99
c-100 -55 -193 -108 -207 -120 -30 -25 -33 -75 -6 -104 18 -20 28 -20 423 -18
l405 3 20 27 c23 30 18 67 -12 95 -11 10 -82 52 -158 92 -210 114 -213 116
-213 154 0 24 9 41 30 62 61 58 62 148 2 192 -31 23 -84 35 -117 26z m212
-465 c92 -50 177 -97 188 -105 16 -11 -39 -13 -354 -13 -206 0 -371 3 -367 8
6 6 356 201 363 202 1 0 78 -41 170 -92z"/>
<path d="M640 1757 c-127 -36 -227 -121 -286 -242 -107 -225 -11 -494 214
-597 60 -28 80 -32 182 -36 99 -3 124 -1 179 18 105 35 190 103 242 195 47 81
44 85 -61 85 -56 0 -90 -4 -90 -10 0 -6 -21 -33 -46 -60 -136 -145 -396 -95
-459 89 -23 67 -20 205 6 261 26 59 83 118 137 141 113 49 270 6 333 -92 l32
-49 94 0 93 0 -19 51 c-37 95 -105 166 -211 217 -70 34 -82 36 -185 39 -69 2
-127 -2 -155 -10z"/>
<path d="M3773 1752 c-65 -23 -116 -62 -151 -114 -37 -56 -43 -157 -14 -214
42 -81 99 -116 272 -164 135 -37 184 -62 201 -102 34 -83 -73 -152 -205 -133
-73 11 -109 41 -130 108 -5 14 -18 17 -96 17 l-91 0 7 -37 c10 -57 38 -105 85
-147 68 -62 118 -79 240 -84 125 -5 190 10 265 60 94 63 131 191 83 293 -36
77 -91 109 -284 164 -145 41 -179 62 -190 112 -20 91 108 149 225 103 41 -17
80 -59 80 -88 0 -13 14 -16 85 -16 96 0 97 2 74 81 -17 56 -60 101 -131 139
-58 31 -71 34 -168 37 -83 3 -116 0 -157 -15z"/>
<path d="M1340 1325 l0 -435 350 0 350 0 0 75 0 75 -260 0 -260 0 0 360 0 360
-90 0 -90 0 0 -435z"/>
<path d="M4390 1325 l1 -435 295 0 294 0 0 75 0 75 -200 0 -200 0 0 105 0 105
175 0 175 0 0 75 0 75 -175 0 -175 0 0 105 0 105 195 0 195 0 0 75 0 75 -290
0 -291 0 1 -435z"/>
<path d="M5080 1680 l0 -80 130 0 130 0 0 -355 0 -355 90 0 90 0 0 355 0 354
133 3 132 3 3 78 3 77 -356 0 -355 0 0 -80z"/>
</g>
</svg>
